<?xml version="1.0" encoding="UTF-8" standalone="no"?>
<svg
   xmlns:dc="http://purl.org/dc/elements/1.1/"
   xmlns:cc="http://creativecommons.org/ns#"
   xmlns:rdf="http://www.w3.org/1999/02/22-rdf-syntax-ns#"
   xmlns:svg="http://www.w3.org/2000/svg"
   xmlns="http://www.w3.org/2000/svg"
   xmlns:sodipodi="http://sodipodi.sourceforge.net/DTD/sodipodi-0.dtd"
   xmlns:inkscape="http://www.inkscape.org/namespaces/inkscape"
   width="44px"
   height="21pt"
   viewBox="227 24 330 150"
   version="1.1"
   id="svg2"
   inkscape:version="0.91 r13725"
   sodipodi:docname="main.svg">
  <metadata
     id="metadata15">
    <rdf:RDF>
      <cc:Work
         rdf:about="">
        <dc:format>image/svg+xml</dc:format>
        <dc:type
           rdf:resource="http://purl.org/dc/dcmitype/StillImage" />
      </cc:Work>
    </rdf:RDF>
  </metadata>
  <defs
     id="defs13" />
  <sodipodi:namedview
     pagecolor="#ffffff"
     bordercolor="#666666"
     borderopacity="1"
     objecttolerance="10"
     gridtolerance="10"
     guidetolerance="10"
     inkscape:pageopacity="0"
     inkscape:pageshadow="2"
     inkscape:window-width="1137"
     inkscape:window-height="592"
     id="namedview11"
     showgrid="false"
     inkscape:zoom="5.3033009"
     inkscape:cx="13.252878"
     inkscape:cy="19.317567"
     inkscape:window-x="0"
     inkscape:window-y="27"
     inkscape:window-maximized="0"
     inkscape:current-layer="svg2" />
  <path
     inkscape:connector-curvature="0"
     id="path3419"
     d="m 368.84077,197.12925 c 0,-0.23507 0.26921,-0.31513 0.59826,-0.17798 0.32903,0.13715 0.59824,0.32947 0.59824,0.42732 0,0.0979 -0.26921,0.17798 -0.59824,0.17798 -0.32905,0 -0.59826,-0.19233 -0.59826,-0.42732 z M 341.0273,183.43867 c -0.20705,-0.226 0.0452,-1.92903 0.56073,-3.78449 2.60894,-9.39139 7.24234,-14.09799 19.20766,-19.51118 5.75321,-2.60281 8.531,-4.44834 10.36361,-6.88567 1.40982,-1.87507 2.82153,-6.04574 2.18249,-6.44789 -0.26237,-0.16508 -0.58014,-0.10767 -0.70616,0.12747 -0.12607,0.23514 -1.78649,2.05197 -3.68997,4.03733 -6.55102,6.83294 -10.17644,8.01912 -26.35326,8.62207 -14.37792,0.53593 -19.45317,1.83972 -25.26804,6.49131 -1.38258,1.10597 -2.77449,2.01084 -3.09315,2.01084 -1.05709,0 0.11368,-2.56165 2.95099,-6.45659 2.13234,-2.92715 3.72486,-4.45985 6.73538,-6.48237 4.66389,-3.13331 7.04076,-3.95819 16.20699,-5.62431 6.97454,-1.26769 10.56477,-2.47801 13.02456,-4.3907 1.54577,-1.20192 4.32482,-4.62777 4.32482,-5.33137 0,-0.2576 -2.01063,0.81999 -4.46803,2.39452 -7.19088,4.60738 -12.4743,5.92737 -19.68437,4.91771 -1.90548,-0.26683 -7.00973,-1.20726 -11.34278,-2.08993 -11.88146,-2.42023 -17.84209,-2.19868 -25.07526,0.93212 -1.58949,0.68796 -3.06987,1.12956 -3.2897,0.98126 -1.62232,-1.09429 9.0678,-8.88674 14.58103,-10.62862 3.45564,-1.09186 3.7021,-1.10987 15.17862,-1.10987 10.90818,0 11.82736,-0.058 14.15065,-0.89626 2.88675,-1.04125 5.51557,-3.06454 7.79163,-5.99682 l 1.61248,-2.0774 -3.0878,-2.39459 c -8.85195,-6.86483 -14.30223,-16.4506 -15.38887,-27.065341 -0.68982,-6.738446 1.31771,-17.637178 5.26009,-28.556525 1.04171,-2.885261 1.90122,-5.378082 1.91003,-5.539581 0.008,-0.161498 -2.53779,-1.160243 -5.6591,-2.219432 -6.28377,-2.132348 -7.98573,-3.369071 -8.63101,-6.271504 -0.76263,-3.430358 3.4785,-9.837642 10.86918,-16.420611 4.75866,-4.238587 17.26605,-12.806663 24.20983,-16.584738 7.2315,-3.934611 12.65218,-6.387813 21.10487,-9.551306 13.48027,-5.0450808 19.42375,-5.0450808 32.90398,0 12.60615,4.717937 21.5042,9.228994 32.24891,16.349251 14.58612,9.665895 23.83586,19.394925 23.86844,25.105393 0.0221,3.893776 -1.70851,5.261003 -10.03692,7.928833 -3.54569,1.135817 -4.48109,1.608476 -4.18309,2.113883 0.2111,0.358018 1.30348,3.284044 2.4275,6.502221 5.7817,16.553561 6.23846,29.421094 1.40517,39.584397 -1.92804,4.05428 -6.21361,9.58554 -9.81916,12.67344 -5.77214,4.94343 -5.43682,4.31675 -3.55659,6.64693 2.2872,2.8346 5.18723,5.01602 7.85859,5.91127 1.98178,0.66415 3.71383,0.75849 13.92915,0.75849 11.50615,0 11.7146,0.0152 15.21694,1.12169 2.48014,0.78344 5.01184,2.12205 8.39518,4.43888 6.50026,4.4513 8.62998,7.82198 3.39647,5.37563 -6.73036,-3.14605 -13.78285,-3.48912 -24.96751,-1.21442 -10.75454,2.18722 -14.47117,2.67736 -18.19393,2.39963 -4.69727,-0.35054 -7.74183,-1.4921 -13.17619,-4.94046 -2.6243,-1.66518 -4.77144,-2.82001 -4.77144,-2.56616 0,0.66972 2.29497,3.64825 3.97726,5.16194 2.15172,1.93612 5.70941,3.14797 13.34652,4.54626 8.64816,1.58336 12.97028,3.13436 17.08132,6.12955 4.57819,3.33547 11.0425,12.43561 8.8337,12.43561 -0.32084,0 -1.9434,-1.05476 -3.60573,-2.34391 -3.09154,-2.39757 -7.82075,-4.41773 -12.41251,-5.3023 -1.31615,-0.25361 -6.86869,-0.63332 -12.33901,-0.84388 -13.29873,-0.51182 -16.8354,-1.23108 -21.43905,-4.36004 -1.84699,-1.25533 -4.67911,-3.8112 -6.29359,-5.67962 -3.15492,-3.65116 -3.8932,-3.67268 -2.70968,-0.0789 1.56831,4.76224 4.07802,6.88598 13.12205,11.10389 7.60843,3.54843 11.25681,6.15321 14.10357,10.06927 3.14362,4.32447 5.76754,12.19454 4.25749,12.76976 -0.29129,0.11099 -1.50275,-1.02072 -2.69213,-2.51494 -4.20451,-5.28215 -8.95605,-8.06439 -18.31239,-10.72251 -19.03833,-5.40892 -22.15392,-7.50616 -26.49525,-17.83478 -0.9795,-2.33041 -2.41904,-6.0978 -3.19895,-8.37195 -0.77989,-2.27416 -1.56575,-4.13541 -1.74635,-4.13618 -0.1806,0 -0.94851,1.8534 -1.70647,4.12038 -5.89437,17.62993 -8.8678,20.412 -27.27963,25.52411 -2.96135,0.82221 -6.84384,2.05541 -8.62773,2.74048 -4.61852,1.77348 -9.56154,5.28345 -11.96678,8.49735 -2.17905,2.91168 -2.73004,3.35907 -3.3303,2.70393 z m 35.09166,-83.633531 c 18.78368,-6.261812 20.31787,-23.717194 2.75983,-31.400422 -10.20988,-4.467793 -24.56634,-3.466532 -33.10995,2.309188 -14.00544,9.468014 -8.72242,25.520594 9.83756,29.891615 3.32761,0.78367 4.92736,0.91372 9.99847,0.8126 5.57517,-0.11119 6.37952,-0.23461 10.51409,-1.612981 z M 360.6048,95.19256 c -3.6716,-0.876475 -8.6708,-4.113282 -10.3222,-6.683416 -1.82004,-2.832522 -1.88593,-7.004425 -0.1523,-9.641409 1.66427,-2.531591 5.14917,-5.038685 8.80132,-6.332035 2.58913,-0.91685 3.76801,-1.0727 8.11439,-1.0727 4.34638,0 5.52524,0.15585 8.1144,1.0727 3.63973,1.288924 7.12382,3.790371 8.81939,6.332035 1.76327,2.643092 1.69757,6.799881 -0.15237,9.641409 -1.73595,2.666528 -6.70718,5.817084 -10.58509,6.708294 -3.475,0.79871 -9.23495,0.787334 -12.63754,-0.02516 z m 17.46616,-13.681273 c 2.70269,-1.823017 -1.39656,-5.943171 -6.46502,-6.497951 -1.58282,-0.173256 -2.32549,-0.02447 -3.35839,0.672087 -1.8737,1.263811 -1.24501,3.025699 1.76513,4.946717 1.9205,1.225573 2.82247,1.513227 4.74473,1.513227 1.36002,0 2.77489,-0.270717 3.31355,-0.63408 z m 53.44595,19.257333 c 13.56551,-2.847863 21.67025,-13.062837 17.57678,-22.153284 -1.50386,-3.339682 -5.03665,-7.074025 -8.43462,-8.915976 -9.07019,-4.916565 -22.08846,-5.44822 -31.62321,-1.291441 -18.91279,8.245339 -15.27126,27.382164 6.16178,32.381311 4.09395,0.95486 11.71855,0.94524 16.31927,-0.0207 z m -17.06924,-5.57606 c -3.6536,-0.872128 -8.66622,-4.112058 -10.34022,-6.683416 -1.84995,-2.841528 -1.91564,-6.998317 -0.15236,-9.641409 1.69556,-2.541664 5.17967,-5.043111 8.81939,-6.332035 2.58915,-0.91685 3.76801,-1.0727 8.11439,-1.0727 4.3464,0 5.52524,0.15585 8.11439,1.0727 3.65217,1.29335 7.13705,3.800444 8.80132,6.332035 1.86951,2.843742 1.70433,6.983045 -0.39414,9.876177 -1.9911,2.745057 -6.5673,5.609874 -10.34994,6.479252 -3.45285,0.793591 -9.2188,0.779552 -12.61283,-0.03054 z m 17.46616,-13.681273 c 2.75414,-1.857743 -1.30009,-5.932637 -6.46501,-6.497951 -1.58282,-0.173256 -2.3255,-0.02447 -3.35842,0.672087 -1.87369,1.263811 -1.24498,3.025699 1.76516,4.946717 1.9205,1.225573 2.82245,1.513227 4.74473,1.513227 1.36,0 2.77486,-0.270717 3.31354,-0.63408 z"
     style="fill:#ffffff"
     inkscape:export-xdpi="12.53"
     inkscape:export-ydpi="12.53" />
  <path
     inkscape:connector-curvature="0"
     id="path3417"
     d="m 341.92353,181.13635 c 0.008,-1.43028 2.35549,-7.31422 3.77063,-9.45192 2.94298,-4.44566 6.85041,-7.19018 16.74441,-11.76108 3.06472,-1.41593 6.23521,-3.26924 7.38317,-4.31592 2.47383,-2.25561 4.54428,-6.57443 4.29145,-8.95155 l -0.18727,-1.76074 -3.82584,4.19991 c -2.10421,2.30987 -4.75292,4.89198 -5.88601,5.73793 -3.98731,2.97701 -10.8455,4.34218 -21.99562,4.37828 -10.7922,0.0351 -17.62314,1.62466 -23.65352,5.50447 -4.50582,2.89901 -4.69938,2.16578 -0.81127,-3.07317 3.33905,-4.49909 8.43329,-8.21182 13.44337,-9.79772 1.83519,-0.58088 5.7388,-1.45438 8.67469,-1.94109 6.94324,-1.15108 11.08278,-2.4719 13.45239,-4.29233 2.26827,-1.74257 4.73403,-5.15232 4.74224,-6.55786 0.006,-0.87045 -0.62904,-0.56623 -4.9259,2.36339 -8.19653,5.58841 -13.02149,6.59197 -22.88707,4.76054 -2.96136,-0.54973 -7.2688,-1.38339 -9.57206,-1.85255 -9.35935,-1.90643 -15.80535,-1.7947 -21.74964,0.37695 -4.13431,1.51041 -4.5361,1.50339 -3.3385,-0.0587 1.6588,-2.16372 8.72081,-6.58068 12.54781,-7.84816 l 3.56652,-1.18116 11.66595,0 c 10.13865,0 11.95656,-0.0975 13.88565,-0.74451 2.96277,-0.99387 6.69119,-3.7838 8.64203,-6.46689 l 1.58902,-2.1854 -4.02659,-3.37227 c -5.12185,-4.28958 -10.00222,-10.88996 -12.0176,-16.25301 -3.83895,-10.21558 -2.87964,-22.374766 3.05054,-38.665246 1.13547,-3.119274 1.99137,-5.706807 1.90196,-5.750236 -0.0895,-0.04347 -2.48142,-0.827396 -5.31559,-1.742268 -8.56844,-2.765899 -10.50267,-5.133545 -8.3907,-10.270985 3.62876,-8.827062 22.27302,-23.391178 41.96081,-32.777975 5.9888,-2.85536 18.55487,-7.4334467 22.91732,-8.3492726 4.32078,-0.907088 8.16372,-0.9365207 12.42066,-0.095153 4.07461,0.8053402 15.48913,4.8734306 21.79529,7.7677506 21.35139,9.799583 41.41923,25.699447 43.85759,34.748607 1.17486,4.360102 -0.83235,6.397966 -8.85972,8.995198 -2.79684,0.904867 -5.15832,1.680757 -5.24771,1.724099 -0.0895,0.04347 0.76648,2.630962 1.90196,5.750235 4.33034,11.895645 6.18487,22.890397 5.13165,30.423658 -1.30055,9.302458 -6.27197,17.939628 -14.09871,24.494598 l -4.02659,3.37228 1.58901,2.18539 c 1.95087,2.68309 5.67927,5.47302 8.64202,6.46689 1.92911,0.64705 3.74701,0.74452 13.88566,0.74452 11.50202,0 11.7122,0.0152 14.95636,1.10125 1.80972,0.60568 4.52048,1.81743 6.02391,2.69284 3.16563,1.84333 8.07932,5.99546 7.53198,6.36462 -0.20512,0.13838 -1.95551,-0.31734 -3.88974,-1.01278 -4.17875,-1.50232 -9.77539,-2.1432 -14.40485,-1.64962 -1.78149,0.18996 -7.03027,1.12011 -11.66395,2.06695 -14.80477,3.02524 -19.30689,2.4184 -28.46943,-3.83707 -2.55647,-1.74534 -4.79453,-3.01357 -4.97348,-2.81826 -0.48326,0.52745 2.21671,4.76224 4.09557,6.42384 2.54092,2.24706 6.2462,3.57926 13.24556,4.76224 3.50888,0.59309 7.88312,1.55415 9.72049,2.1358 5.01436,1.58717 10.10716,5.29824 13.4474,9.79894 3.88809,5.23894 3.69454,5.97217 -0.81128,3.07315 -6.03037,-3.8798 -12.86133,-5.4695 -23.65354,-5.50446 -15.73623,-0.0511 -20.86975,-1.91926 -27.92243,-10.16208 -1.68052,-1.96407 -3.28695,-3.66756 -3.56984,-3.78548 -0.92147,-0.38413 -0.54173,3.33373 0.59137,5.78946 1.56344,3.38837 4.27986,5.82793 8.93067,8.0205 14.80163,6.978 18.18941,9.87785 21.0972,18.05854 1.89944,5.34382 1.45171,5.91058 -1.69655,2.14785 -0.98254,-1.17437 -3.4557,-3.17758 -5.49592,-4.4517 -3.95205,-2.46794 -7.06269,-3.6568 -17.24246,-6.58961 -15.38954,-4.43382 -17.6387,-6.61358 -23.40213,-22.68006 -1.30219,-3.63001 -2.5333,-6.71179 -2.73577,-6.84842 -0.64092,-0.43228 -1.27853,0.68079 -2.34131,4.08704 -1.56961,5.03082 -5.5381,14.17064 -6.99481,16.10982 -3.20794,4.27035 -7.12042,6.36767 -17.40803,9.33162 -10.17977,2.93281 -13.29041,4.12167 -17.24243,6.58961 -2.04023,1.27412 -4.5134,3.27733 -5.49593,4.4517 -1.98952,2.37779 -2.87079,2.94891 -2.86452,1.85629 z m 31.55453,-80.09228 c 2.05694,-0.4432 5.30405,-1.582458 7.21576,-2.531751 16.82505,-8.354549 14.33783,-25.569976 -4.56926,-31.626478 -10.63947,-3.408144 -24.08037,-1.619019 -31.89286,4.24539 -8.24035,6.185488 -9.46374,15.424842 -2.9491,22.272733 6.99749,7.355426 19.61678,10.349976 32.19546,7.640106 z m -9.81594,-5.594382 c -5.3416,-0.72216 -10.06534,-3.240389 -12.84475,-6.847734 -2.09061,-2.713315 -2.00237,-7.492807 0.19042,-10.315794 1.6844,-2.168453 5.1073,-4.498934 8.37474,-5.701912 1.51588,-0.558146 3.31244,-0.729025 7.66348,-0.729025 5.11483,0 5.96179,0.110357 8.46595,1.103382 10.38443,4.117628 12.57158,12.780293 4.69455,18.593872 -4.40931,3.254203 -10.56843,4.705077 -16.54439,3.897211 z m 14.40884,-13.534889 c 0.51707,-0.348794 0.94013,-1.174976 0.94013,-1.835999 0,-2.793674 -3.80285,-5.197043 -8.22336,-5.197043 -2.78856,0 -3.94114,0.718873 -3.94114,2.458165 0,3.299923 8.17484,6.631899 11.22437,4.574877 z m 52.67909,19.518501 c 5.94892,-1.00744 12.24755,-4.187761 15.90224,-8.029336 6.94155,-7.296661 5.01285,-17.39112 -4.44656,-23.272545 -5.87259,-3.651311 -11.99067,-5.1118 -20.3772,-4.864363 -4.76245,0.140509 -6.0536,0.348786 -10.00296,1.613899 -16.0301,5.134925 -20.82476,18.424052 -10.10318,28.002726 6.60362,5.899669 17.86348,8.440269 29.02766,6.549619 z M 417.505,95.449688 c -3.86995,-0.523186 -6.97364,-1.780126 -9.99772,-4.04887 -7.79252,-5.846239 -4.99647,-15.029722 5.7181,-18.780777 2.91738,-1.021339 9.81381,-1.219855 13.5213,-0.389247 3.85684,0.864119 8.11019,3.388456 10.16224,6.031253 1.3524,1.741653 1.60532,2.576078 1.60532,5.295729 0,2.712699 -0.25263,3.550483 -1.58193,5.245974 -3.89923,4.973191 -11.80214,7.676736 -19.42731,6.645938 z m 14.40883,-13.534889 c 2.3606,-1.592302 0.5851,-5.090888 -3.2651,-6.433844 -2.06775,-0.721242 -6.0468,-0.78619 -7.04194,-0.114942 -1.17465,0.792298 -0.85457,3.325026 0.57509,4.55098 2.78383,2.387195 7.66818,3.389836 9.73195,1.997801 z"
     style="fill:#ffffff;fill-opacity:1"
     inkscape:export-xdpi="12.53"
     inkscape:export-ydpi="12.53" />
  <path
     inkscape:connector-curvature="0"
     id="path3415"
     d="m 342.51759,180.09554 c 0,-1.60198 2.40582,-6.86033 4.37744,-9.56768 2.37419,-3.26016 6.84677,-6.33958 13.89437,-9.56662 6.14992,-2.81605 10.05307,-5.47218 11.64461,-7.92448 1.33452,-2.05626 2.58542,-6.22448 2.26959,-7.56263 -0.2039,-0.86383 -0.51786,-0.67432 -2.59868,1.56871 -10.01449,10.79471 -11.70322,11.5003 -29.11399,12.16407 -5.68949,0.2169 -11.42139,0.60172 -12.73755,0.85503 -4.18802,0.80626 -8.20878,2.41504 -11.78324,4.71478 -4.40945,2.83695 -4.58337,2.07618 -0.71648,-3.13416 1.94607,-2.62218 3.83563,-4.45183 6.43123,-6.22731 4.2173,-2.8848 7.7837,-4.13854 15.64055,-5.49814 9.39736,-1.62611 12.73984,-2.9564 15.54703,-6.1874 1.76289,-2.02908 3.34035,-4.92625 2.85905,-5.25092 -0.19126,-0.12899 -2.69264,1.29021 -5.55864,3.15383 -5.72645,3.72358 -7.45019,4.46521 -11.86143,5.10333 -3.70597,0.53608 -7.26669,0.12853 -18.08905,-2.07076 -4.41299,-0.89678 -9.65461,-1.73426 -11.64802,-1.86111 -4.15896,-0.26461 -9.20779,0.54914 -13.27629,2.13984 -1.7025,0.66567 -2.53629,0.82183 -2.52355,0.47266 0.0561,-1.53941 8.38501,-6.94085 13.1184,-8.50759 l 3.91283,-1.29517 10.94502,0.11172 c 9.66141,0.0987 11.24498,0.0221 13.50251,-0.65132 2.94945,-0.88 6.30395,-3.07234 8.40988,-5.49624 2.67407,-3.07782 2.61393,-3.48423 -0.94759,-6.40476 -7.68868,-6.30471 -12.39574,-13.80308 -14.22071,-22.65364 -1.63394,-7.923954 0.003,-18.96282 4.83161,-32.609289 1.0036,-2.835507 1.69425,-5.377778 1.53477,-5.649485 -0.15946,-0.271706 -1.8682,-0.905864 -3.79717,-1.409276 -4.4252,-1.154906 -9.04736,-3.426539 -9.86926,-4.850549 -0.3474,-0.6018 -0.49944,-2.254235 -0.33789,-3.671989 0.61949,-5.436697 9.32048,-14.537149 22.2417,-23.262826 11.80049,-7.968878 20.96614,-12.540657 34.79098,-17.353557 7.41156,-2.5802081 8.13078,-2.7458803 12.69403,-2.9240734 6.58299,-0.2570422 9.13229,0.2583697 19.10533,3.8626594 21.37278,7.724209 42.6902,21.614765 51.47448,33.541074 2.60632,3.538578 2.79535,4.007421 2.79535,6.933447 0,2.901444 -0.12886,3.229014 -1.70813,4.341862 -1.57132,1.107347 -6.61411,3.016381 -10.77202,4.078017 -2.00985,0.513191 -2.07601,-0.0915 0.99514,9.098994 3.36765,10.077824 4.26017,14.834799 4.27776,22.799806 0.0111,5.354048 -0.24698,7.871445 -1.07007,10.409595 -2.59475,8.00134 -6.85888,14.02663 -13.95453,19.71817 -2.86766,2.30017 -3.04367,2.80802 -1.62778,4.69721 2.14305,2.85939 5.73075,5.50806 8.85911,6.54046 3.05011,1.00662 3.37393,1.0276 14.14621,0.91708 l 11.02463,-0.11308 3.90995,1.29418 c 2.40501,0.79611 5.21515,2.19395 7.30095,3.63185 6.33911,4.36995 7.6341,6.09993 3.29675,4.40407 -4.06848,-1.5907 -9.11732,-2.40445 -13.27628,-2.13984 -1.99341,0.12685 -7.16961,0.95105 -11.50265,1.83164 -11.33571,2.30362 -13.87252,2.60502 -17.80096,2.11519 -4.71585,-0.58799 -6.42219,-1.29961 -12.33392,-5.1437 -2.88747,-1.87752 -5.39085,-3.25993 -5.56303,-3.07203 -0.47322,0.51648 2.25195,4.76913 4.10785,6.41042 2.54092,2.24706 6.2462,3.57925 13.24556,4.76224 3.50888,0.59309 7.88311,1.55413 9.72049,2.13579 5.01436,1.58718 10.10716,5.29825 13.4474,9.79893 3.88809,5.23895 3.69454,5.97218 -0.81128,3.07317 -6.03037,-3.87981 -12.86133,-5.4695 -23.65354,-5.50447 -15.78989,-0.0511 -20.69885,-1.84851 -28.01587,-10.25749 -3.382,-3.88674 -4.59439,-4.62279 -4.58013,-2.78077 0.0125,1.62877 1.61576,6.00568 2.73402,7.46433 1.63253,2.12946 5.67897,4.75416 11.29106,7.32392 7.13415,3.26664 11.51924,6.30699 13.93074,9.65873 2.22675,3.09492 4.51925,8.37097 4.21227,9.69431 -0.1769,0.76252 -0.42259,0.62454 -1.61804,-0.90899 -0.77521,-0.9944 -3.05492,-2.91718 -5.06605,-4.27288 -3.72849,-2.51334 -5.2341,-3.08644 -21.94122,-8.35158 -6.38784,-2.01313 -9.5234,-3.66435 -12.04819,-6.34483 -2.10022,-2.22967 -5.09481,-8.43646 -7.74133,-16.04527 -2.61046,-7.5051 -3.25548,-7.5989 -5.55122,-0.80703 -2.2993,6.80225 -5.51564,13.84414 -7.37966,16.15692 -2.30187,2.85603 -6.0816,4.96167 -12.59015,7.01381 -16.82476,5.30481 -18.29026,5.86234 -22.02219,8.37798 -2.01111,1.3557 -4.23761,3.23306 -4.94776,4.17206 -1.46322,1.93459 -1.86511,2.10503 -1.86511,0.79106 z M 371.512,101.70356 c 17.69856,-3.109416 26.17072,-17.049345 16.86886,-27.7556 -2.09505,-2.411386 -8.04042,-6.040172 -11.88612,-7.25476 -16.95703,-5.355644 -36.2602,1.556353 -39.45633,14.12837 -2.29366,9.022062 6.8319,18.365056 20.43554,20.92236 3.76595,0.70789 9.87891,0.69034 14.03805,-0.0404 z m -7.84988,-6.253872 c -5.3416,-0.72216 -10.06534,-3.240389 -12.84475,-6.847734 -2.09061,-2.713315 -2.00237,-7.492807 0.19042,-10.315794 1.6844,-2.168453 5.1073,-4.498934 8.37474,-5.701912 1.51588,-0.558146 3.31244,-0.729025 7.66348,-0.729025 5.11483,0 5.96179,0.110357 8.46595,1.103382 10.38443,4.117628 12.57158,12.780293 4.69455,18.593872 -4.40931,3.254203 -10.56843,4.705077 -16.54439,3.897211 z m 14.40884,-13.534889 c 0.51707,-0.348794 0.94013,-1.174976 0.94013,-1.835999 0,-2.793674 -3.80285,-5.197043 -8.22336,-5.197043 -2.78856,0 -3.94114,0.718873 -3.94114,2.458165 0,3.299923 8.17484,6.631899 11.22437,4.574877 z m 52.09085,19.857981 c 13.8246,-2.494646 22.95621,-11.711708 20.70653,-20.900311 -2.64006,-10.78303 -17.5646,-17.832099 -33.09086,-15.629379 -4.85638,0.689032 -9.1448,2.225766 -13.09512,4.692713 -6.0229,3.761215 -8.92015,8.183515 -8.92015,13.615412 0,8.476585 8.41892,15.958477 20.40323,18.132355 4.10466,0.74451 10.15127,0.78305 13.99637,0.0892 z M 417.505,95.449688 c -3.86995,-0.523186 -6.97364,-1.780126 -9.99772,-4.04887 -7.79252,-5.846239 -4.99647,-15.029722 5.7181,-18.780777 2.91738,-1.021339 9.81381,-1.219855 13.5213,-0.389247 3.85684,0.864119 8.11019,3.388456 10.16224,6.031253 1.3524,1.741653 1.60532,2.576078 1.60532,5.295729 0,2.712699 -0.25263,3.550483 -1.58193,5.245974 -3.89923,4.973191 -11.80214,7.676736 -19.42731,6.645938 z m 14.40883,-13.534889 c 2.3606,-1.592302 0.5851,-5.090888 -3.2651,-6.433844 -2.06775,-0.721242 -6.0468,-0.78619 -7.04194,-0.114942 -1.17465,0.792298 -0.85457,3.325026 0.57509,4.55098 2.78383,2.387195 7.66818,3.389836 9.73195,1.997801 z"
     style="fill:#ffffff;fill-opacity:0"
     inkscape:export-xdpi="12.53"
     inkscape:export-ydpi="12.53" />
  <path
     inkscape:connector-curvature="0"
     id="path3405"
     d="m 317.98917,163.23738 c 0,-0.86365 3.9013,-4.98883 6.60551,-6.98466 3.72471,-2.74894 7.18485,-3.97574 15.52989,-5.5063 7.87745,-1.44478 11.96159,-2.81039 14.44166,-4.82887 2.21603,-1.80355 4.70202,-5.30879 5.12052,-7.21988 0.39463,-1.80218 2.5326,-4.08618 3.82836,-4.08993 0.52582,0 2.81413,0.5106 5.08517,1.13796 4.07927,1.12689 4.13402,1.16223 4.53348,2.92563 0.90734,4.00529 0.69945,4.56688 -3.42556,9.25432 -4.57143,5.19469 -6.69101,6.93092 -10.07285,8.25099 -3.71723,1.45095 -6.57227,1.81822 -17.23302,2.21698 -11.3918,0.42611 -15.85681,1.19795 -21.00675,3.63132 -1.87353,0.88525 -3.40641,1.43079 -3.40641,1.21244 z m 149.06572,-1.01996 c -4.69753,-2.4458 -12.07118,-3.7822 -21.03934,-3.81319 -11.01271,-0.0382 -17.69502,-1.39073 -21.72143,-4.39689 -1.14733,-0.85663 -3.88768,-3.60475 -6.08966,-6.10695 l -4.00361,-4.54946 0.41942,-3.19597 0.41944,-3.19598 2.47588,-0.7133 c 6.52884,-1.88094 6.83753,-1.90857 8.53379,-0.76444 0.93202,0.62867 1.75311,1.78533 2.06387,2.90732 0.66046,2.38468 2.98336,5.67972 5.37909,7.63019 2.46674,2.00841 6.20933,3.24055 14.41374,4.74523 8.24951,1.513 11.71892,2.74682 15.43414,5.48874 2.86996,2.11817 6.83112,6.38538 6.48917,6.99055 -0.10061,0.17796 -1.34907,-0.2837 -2.7745,-1.02585 z M 362.2561,94.70547 c -12.78662,-2.828019 -16.35945,-13.612654 -6.4922,-19.596738 7.02925,-4.262866 17.10082,-4.026119 23.44836,0.551196 3.66245,2.641036 4.75352,4.444748 4.77749,7.897848 0.0315,4.531066 -3.35142,8.2835 -9.3319,10.351204 -2.73492,0.945554 -9.70392,1.39318 -12.40175,0.79649 z m 16.71158,-12.816312 c 1.61667,-1.386307 1.56398,-2.326368 -0.24726,-4.411088 -2.767,-3.18483 -9.58124,-4.374149 -11.95636,-2.086871 -2.88847,2.781621 2.42351,7.561269 8.40342,7.561269 2.05333,0 2.80577,-0.210576 3.8002,-1.06331 z m 36.35624,12.611159 c -3.60285,-0.90563 -6.81532,-2.60867 -8.73985,-4.633178 -10.5846,-11.134801 10.67422,-23.628055 25.36433,-14.905935 9.2649,5.50089 7.47466,14.978441 -3.58135,18.959681 -3.04565,1.096665 -9.79298,1.396461 -13.04313,0.579432 z m 17.48662,-12.611159 c 1.61669,-1.386307 1.564,-2.326368 -0.24725,-4.411088 -2.767,-3.18483 -9.58124,-4.374149 -11.95635,-2.086871 -2.88847,2.781621 2.42351,7.561269 8.40341,7.561269 2.05334,0 2.80576,-0.210576 3.80019,-1.06331 z"
     style="fill:#ffffff;fill-opacity:1"
     inkscape:export-xdpi="12.53"
     inkscape:export-ydpi="12.53" />
  <path
     inkscape:connector-curvature="0"
     id="path3403"
     d="m 361.29536,94.139931 c -4.73857,-1.256637 -8.27341,-3.722977 -9.90847,-6.913446 -2.02537,-3.952095 -0.89933,-7.775118 3.21978,-10.931635 10.16609,-7.790234 29.19046,-2.887404 29.19046,7.522805 0,3.720598 -4.19283,8.152677 -9.29864,9.829312 -2.86154,0.939601 -10.45023,1.222978 -13.20313,0.492964 z m 17.54267,-11.691872 c 1.99021,-1.466753 2.19061,-2.562194 0.8185,-4.474057 -2.23038,-3.107743 -7.26641,-4.808188 -11.0674,-3.736937 -3.74141,1.054459 -4.21015,3.842797 -1.06926,6.360652 3.49601,2.802457 8.84055,3.676189 11.31816,1.850342 z m 36.33944,11.691872 c -7.22488,-1.957114 -11.60717,-6.555195 -10.86575,-11.400702 1.53068,-10.003791 19.24455,-13.932605 29.02533,-6.437585 7.17646,5.499285 4.59027,14.189196 -5.17958,17.404171 -2.67913,0.881586 -10.37754,1.139097 -12.98,0.434116 z m 17.92244,-12.02555 c 1.87376,-1.502008 1.91119,-2.033976 0.30094,-4.277677 -3.98956,-5.558967 -15.97838,-5.009219 -13.7274,0.629498 0.57463,1.439428 3.24121,3.506751 5.70233,4.420858 0.65808,0.244383 2.31674,0.449918 3.68591,0.456633 2.05706,0.0098 2.75837,-0.203321 4.03822,-1.229312 z"
     style="fill:#ffffff"
     inkscape:export-xdpi="12.53"
     inkscape:export-ydpi="12.53" />
</svg>
